<?xml version="1.0" encoding="utf-8"?>
<!-- Generator: Adobe Illustrator 27.5.0, SVG Export Plug-In . SVG Version: 6.00 Build 0)  -->
<svg version="1.1" id="Layer_1" xmlns="http://www.w3.org/2000/svg" xmlns:xlink="http://www.w3.org/1999/xlink" x="0px" y="0px"
	 viewBox="0 0 2700 783.8" style="enable-background:new 0 0 2700 783.8;" xml:space="preserve">
<style type="text/css">
	.st0{fill:#222222;}
	.st1{fill:none;stroke:#FFFFFF;stroke-width:60;stroke-miterlimit:10;}
	.st2{fill:none;stroke:#222222;stroke-width:35;stroke-miterlimit:10;}
</style>
<g>
	<path class="st0" d="M116.3,592.8V314.6h347.4v-16.3H116.3V44.5h369.3V28.2H100v580.9h388.9v-16.3H116.3L116.3,592.8z M802.1,190.9
		l-144,189.6L517.3,190.9h-21.2l152.1,201.8L481.5,609.1H501l157-204.2l157.8,204.2h20.3L668.7,392.7l152.9-201.8L802.1,190.9
		L802.1,190.9z M885.1,752.3V492h1.6c9.8,38,29,68.5,57.8,91.5c28.7,23,65.4,34.6,109.8,34.6c28.7,0,54.2-5.8,76.5-17.5
		c22.2-11.7,40.8-27.5,55.7-47.6c14.9-20.1,26.3-43.4,34.2-70c7.9-26.6,11.8-54.5,11.8-83.8c0-31.5-4.1-60.5-12.2-87.1
		s-19.9-49.6-35.4-69.2c-15.5-19.5-34.2-34.7-56.1-45.6c-22-10.8-46.8-16.3-74.4-16.3c-21.2,0-40.8,3.1-59,9.4
		c-18.2,6.2-34.3,15-48.4,26.4c-14.2,11.5-26.5,25.1-36.6,40.3c-10.3,15.5-18.2,32.4-23.6,50.8h-1.6v-117h-16.3v561.3h16.2V752.3z
		 M1054.3,602.6c-51,0-91.9-17.5-122.8-52.5c-30.9-35-46.4-85.3-46.4-150.9c0-27.1,3.8-52.9,11.4-77.3c7.6-24.4,18.6-45.8,32.9-64.3
		c14.4-18.4,32.1-33.1,53.3-43.9c21.2-10.8,45-16.3,71.6-16.3c27.1,0,50.8,5.4,71.2,16.3c20.3,10.8,37.2,25.6,50.4,44.3
		c13.3,18.7,23.3,40.1,30.1,64.3c6.8,24.1,10.2,49.8,10.2,76.9c0,24.4-3.1,48.7-9.4,72.8c-6.2,24.1-15.9,45.8-28.9,65.1
		c-13,19.2-29.7,35-50,47.2C1107.6,596.5,1083,602.6,1054.3,602.6L1054.3,602.6z M1321.9,609.1V372.4c0-22.8,3.3-45,9.8-66.7
		s16.5-40.8,30.1-57.4c13.6-16.5,30.8-29.6,51.7-39.1c20.9-9.5,45.7-13.4,74.4-11.8v-16.3c-25-0.5-46.8,2.2-65.5,8.1
		c-18.7,6-34.8,14.1-48.4,24.4c-13.6,10.3-24.4,22.4-32.5,36.2s-14.2,28.8-17.9,44.3h-1.6V190.9h-16.3v418.2H1321.9L1321.9,609.1z
		 M1508.2,403.3H1858c1.1-28.7-1.8-56.4-8.5-83c-6.8-26.6-17.6-50.2-32.5-70.8s-34.2-37.2-57.8-49.6s-51.7-18.7-84.2-18.7
		c-23.3,0-46.1,4.9-68.3,14.6c-22.2,9.8-41.8,24-58.6,42.7c-16.8,18.7-30.4,41.6-40.7,68.8c-10.3,27.1-15.5,58-15.5,92.7
		c0,30.9,3.5,59.8,10.6,86.6s17.9,50.2,32.5,70c14.6,19.8,33.5,35.1,56.5,46c23,10.8,50.8,16,83.4,15.5c47.7,0,87.9-13.4,120.4-40.3
		c32.5-26.9,51.8-64.7,57.8-113.5h-16.3c-7.1,46.1-25.1,80.7-54.1,103.7c-29,23.1-65.5,34.6-109.4,34.6c-29.8,0-55-5.2-75.7-15.5
		c-20.6-10.3-37.4-24.4-50.4-42.3s-22.6-38.9-28.9-63.1C1512.2,457.6,1508.8,431.5,1508.2,403.3L1508.2,403.3z M1841.8,387h-333.5
		c1.6-29.3,7-55.6,16.3-78.9c9.2-23.3,21.3-43.3,36.2-59.8c14.9-16.5,32.3-29.2,52.1-37.8c19.8-8.7,41.1-13,63.9-13
		c27.1,0,51,5,71.6,15.1c20.6,10,37.8,23.7,51.7,41.1c13.8,17.4,24.3,37.6,31.3,60.6C1838.3,337.2,1841.8,361.5,1841.8,387
		L1841.8,387z M2195.7,314.6h16.3c0-46.6-13.6-80.5-40.7-101.7s-64-31.7-110.6-31.7c-26,0-48,3.3-65.9,9.8s-32.5,14.9-43.9,25.2
		s-19.5,21.7-24.4,34.2c-4.9,12.5-7.3,24.4-7.3,35.8c0,22.8,4.1,40.9,12.2,54.5s20.9,24.1,38.2,31.7c11.9,5.4,25.5,10.3,40.7,14.6
		c15.2,4.3,32.8,8.9,52.9,13.8c17.9,4.3,35.5,8.7,52.9,13s32.7,10.2,46,17.5s24.1,16.7,32.5,28.1s12.6,26.3,12.6,44.7
		c0,17.9-4.2,33.1-12.6,45.6c-8.3,12.4-19.3,22.8-32.1,30.5c-13,7.9-27.5,13.6-43.5,17.1s-31.6,5.3-46.8,5.3
		c-49.4,0-87.2-11-113.5-32.9c-26.3-22-39.5-56.5-39.5-103.7h-16.3c0,52.6,14.2,91.1,42.7,115.5s70.6,36.6,126.5,36.6
		c17.9,0,35.9-2,54.1-6.1c18.2-4.1,34.4-10.7,48.8-19.9c14.2-9.1,26.2-21.3,35-35.8c9-14.6,13.4-32.5,13.4-53.7
		c0-20.1-3.9-36.3-11.8-48.8c-7.9-12.5-18.2-22.8-30.9-30.9s-27.1-14.5-43.1-19.1c-16.1-4.6-32.2-9.1-48.4-13.4
		c-19.9-5.2-39.8-10.4-59.8-15.5c-17.1-4.3-32.9-9.5-47.6-15.5c-14.1-6-25.4-14.5-33.8-25.6s-12.6-27-12.6-47.6
		c0-3.8,1.1-10.6,3.3-20.3c2.2-9.8,7.3-19.7,15.5-29.7c8.1-10,20.6-19,37.4-26.8c16.8-7.9,39.9-11.8,69.2-11.8
		c20.1,0,38.4,2.2,54.9,6.5s30.8,11.3,42.7,20.7c11.9,9.5,21.2,21.6,27.7,36.2C2192.4,275.5,2195.7,293.4,2195.7,314.6L2195.7,314.6
		z M2572.3,314.6h16.3c0-46.6-13.6-80.5-40.7-101.7s-64-31.7-110.6-31.7c-26,0-48,3.3-65.9,9.8s-32.5,14.9-43.9,25.2
		s-19.5,21.7-24.4,34.2c-4.9,12.5-7.3,24.4-7.3,35.8c0,22.8,4.1,40.9,12.2,54.5c8.1,13.6,20.9,24.1,38.2,31.7
		c11.9,5.4,25.5,10.3,40.7,14.6c15.2,4.3,32.8,8.9,52.9,13.8c17.9,4.3,35.5,8.7,52.9,13s32.7,10.2,46,17.5s24.1,16.7,32.5,28.1
		s12.6,26.3,12.6,44.7c0,17.9-4.2,33.1-12.6,45.6c-8.3,12.4-19.3,22.8-32.1,30.5c-13,7.9-27.5,13.6-43.5,17.1s-31.6,5.3-46.8,5.3
		c-49.4,0-87.2-11-113.5-32.9c-26.3-22-39.5-56.5-39.5-103.7h-16.3c0,52.6,14.2,91.1,42.7,115.5s70.6,36.6,126.5,36.6
		c17.9,0,35.9-2,54.1-6.1c18.2-4.1,34.4-10.7,48.8-19.9c14.2-9.1,26.2-21.3,35-35.8c9-14.6,13.4-32.5,13.4-53.7
		c0-20.1-3.9-36.3-11.8-48.8c-7.9-12.5-18.2-22.8-30.9-30.9s-27.1-14.5-43.1-19.1c-16.1-4.6-32.2-9.1-48.4-13.4
		c-19.9-5.2-39.8-10.4-59.8-15.5c-17.1-4.3-32.9-9.5-47.6-15.5c-14.1-6-25.4-14.5-33.8-25.6c-8.4-11.1-12.6-27-12.6-47.6
		c0-3.8,1.1-10.6,3.3-20.3c2.2-9.8,7.3-19.7,15.5-29.7c8.1-10,20.6-19,37.4-26.8c16.8-7.9,39.9-11.8,69.2-11.8
		c20.1,0,38.4,2.2,54.9,6.5s30.8,11.3,42.7,20.7s21.2,21.6,27.7,36.2C2569.1,275.5,2572.3,293.4,2572.3,314.6L2572.3,314.6z"/>
	<path class="st1" d="M116.3,592.8V314.6h347.4v-16.3H116.3V44.5h369.3V28.2H100v580.9h388.9v-16.3H116.3L116.3,592.8z M802.1,190.9
		l-144,189.6L517.3,190.9h-21.2l152.1,201.8L481.5,609.1H501l157-204.2l157.8,204.2h20.3L668.7,392.7l152.9-201.8L802.1,190.9
		L802.1,190.9z M885.1,752.3V492h1.6c9.8,38,29,68.5,57.8,91.5c28.7,23,65.4,34.6,109.8,34.6c28.7,0,54.2-5.8,76.5-17.5
		c22.2-11.7,40.8-27.5,55.7-47.6c14.9-20.1,26.3-43.4,34.2-70c7.9-26.6,11.8-54.5,11.8-83.8c0-31.5-4.1-60.5-12.2-87.1
		s-19.9-49.6-35.4-69.2c-15.5-19.5-34.2-34.7-56.1-45.6c-22-10.8-46.8-16.3-74.4-16.3c-21.2,0-40.8,3.1-59,9.4
		c-18.2,6.2-34.3,15-48.4,26.4c-14.2,11.5-26.5,25.1-36.6,40.3c-10.3,15.5-18.2,32.4-23.6,50.8h-1.6v-117h-16.3v561.3h16.2V752.3z
		 M1054.3,602.6c-51,0-91.9-17.5-122.8-52.5c-30.9-35-46.4-85.3-46.4-150.9c0-27.1,3.8-52.9,11.4-77.3c7.6-24.4,18.6-45.8,32.9-64.3
		c14.4-18.4,32.1-33.1,53.3-43.9c21.2-10.8,45-16.3,71.6-16.3c27.1,0,50.8,5.4,71.2,16.3c20.3,10.8,37.2,25.6,50.4,44.3
		c13.3,18.7,23.3,40.1,30.1,64.3c6.8,24.1,10.2,49.8,10.2,76.9c0,24.4-3.1,48.7-9.4,72.8c-6.2,24.1-15.9,45.8-28.9,65.1
		c-13,19.2-29.7,35-50,47.2C1107.6,596.5,1083,602.6,1054.3,602.6L1054.3,602.6z M1321.9,609.1V372.4c0-22.8,3.3-45,9.8-66.7
		s16.5-40.8,30.1-57.4c13.6-16.5,30.8-29.6,51.7-39.1c20.9-9.5,45.7-13.4,74.4-11.8v-16.3c-25-0.5-46.8,2.2-65.5,8.1
		c-18.7,6-34.8,14.1-48.4,24.4c-13.6,10.3-24.4,22.4-32.5,36.2s-14.2,28.8-17.9,44.3h-1.6V190.9h-16.3v418.2H1321.9L1321.9,609.1z
		 M1508.2,403.3H1858c1.1-28.7-1.8-56.4-8.5-83c-6.8-26.6-17.6-50.2-32.5-70.8s-34.2-37.2-57.8-49.6s-51.7-18.7-84.2-18.7
		c-23.3,0-46.1,4.9-68.3,14.6c-22.2,9.8-41.8,24-58.6,42.7c-16.8,18.7-30.4,41.6-40.7,68.8c-10.3,27.1-15.5,58-15.5,92.7
		c0,30.9,3.5,59.8,10.6,86.6s17.9,50.2,32.5,70c14.6,19.8,33.5,35.1,56.5,46c23,10.8,50.8,16,83.4,15.5c47.7,0,87.9-13.4,120.4-40.3
		c32.5-26.9,51.8-64.7,57.8-113.5h-16.3c-7.1,46.1-25.1,80.7-54.1,103.7c-29,23.1-65.5,34.6-109.4,34.6c-29.8,0-55-5.2-75.7-15.5
		c-20.6-10.3-37.4-24.4-50.4-42.3s-22.6-38.9-28.9-63.1C1512.2,457.6,1508.8,431.5,1508.2,403.3L1508.2,403.3z M1841.8,387h-333.5
		c1.6-29.3,7-55.6,16.3-78.9c9.2-23.3,21.3-43.3,36.2-59.8c14.9-16.5,32.3-29.2,52.1-37.8c19.8-8.7,41.1-13,63.9-13
		c27.1,0,51,5,71.6,15.1c20.6,10,37.8,23.7,51.7,41.1c13.8,17.4,24.3,37.6,31.3,60.6C1838.3,337.2,1841.8,361.5,1841.8,387
		L1841.8,387z M2195.7,314.6h16.3c0-46.6-13.6-80.5-40.7-101.7s-64-31.7-110.6-31.7c-26,0-48,3.3-65.9,9.8s-32.5,14.9-43.9,25.2
		s-19.5,21.7-24.4,34.2c-4.9,12.5-7.3,24.4-7.3,35.8c0,22.8,4.1,40.9,12.2,54.5s20.9,24.1,38.2,31.7c11.9,5.4,25.5,10.3,40.7,14.6
		c15.2,4.3,32.8,8.9,52.9,13.8c17.9,4.3,35.5,8.7,52.9,13s32.7,10.2,46,17.5s24.1,16.7,32.5,28.1s12.6,26.3,12.6,44.7
		c0,17.9-4.2,33.1-12.6,45.6c-8.3,12.4-19.3,22.8-32.1,30.5c-13,7.9-27.5,13.6-43.5,17.1s-31.6,5.3-46.8,5.3
		c-49.4,0-87.2-11-113.5-32.9c-26.3-22-39.5-56.5-39.5-103.7h-16.3c0,52.6,14.2,91.1,42.7,115.5s70.6,36.6,126.5,36.6
		c17.9,0,35.9-2,54.1-6.1c18.2-4.1,34.4-10.7,48.8-19.9c14.2-9.1,26.2-21.3,35-35.8c9-14.6,13.4-32.5,13.4-53.7
		c0-20.1-3.9-36.3-11.8-48.8c-7.9-12.5-18.2-22.8-30.9-30.9s-27.1-14.5-43.1-19.1c-16.1-4.6-32.2-9.1-48.4-13.4
		c-19.9-5.2-39.8-10.4-59.8-15.5c-17.1-4.3-32.9-9.5-47.6-15.5c-14.1-6-25.4-14.5-33.8-25.6s-12.6-27-12.6-47.6
		c0-3.8,1.1-10.6,3.3-20.3c2.2-9.8,7.3-19.7,15.5-29.7c8.1-10,20.6-19,37.4-26.8c16.8-7.9,39.9-11.8,69.2-11.8
		c20.1,0,38.4,2.2,54.9,6.5s30.8,11.3,42.7,20.7c11.9,9.5,21.2,21.6,27.7,36.2C2192.4,275.5,2195.7,293.4,2195.7,314.6L2195.7,314.6
		z M2572.3,314.6h16.3c0-46.6-13.6-80.5-40.7-101.7s-64-31.7-110.6-31.7c-26,0-48,3.3-65.9,9.8s-32.5,14.9-43.9,25.2
		s-19.5,21.7-24.4,34.2c-4.9,12.5-7.3,24.4-7.3,35.8c0,22.8,4.1,40.9,12.2,54.5c8.1,13.6,20.9,24.1,38.2,31.7
		c11.9,5.4,25.5,10.3,40.7,14.6c15.2,4.3,32.8,8.9,52.9,13.8c17.9,4.3,35.5,8.7,52.9,13s32.7,10.2,46,17.5s24.1,16.7,32.5,28.1
		s12.6,26.3,12.6,44.7c0,17.9-4.2,33.1-12.6,45.6c-8.3,12.4-19.3,22.8-32.1,30.5c-13,7.9-27.5,13.6-43.5,17.1s-31.6,5.3-46.8,5.3
		c-49.4,0-87.2-11-113.5-32.9c-26.3-22-39.5-56.5-39.5-103.7h-16.3c0,52.6,14.2,91.1,42.7,115.5s70.6,36.6,126.5,36.6
		c17.9,0,35.9-2,54.1-6.1c18.2-4.1,34.4-10.7,48.8-19.9c14.2-9.1,26.2-21.3,35-35.8c9-14.6,13.4-32.5,13.4-53.7
		c0-20.1-3.9-36.3-11.8-48.8c-7.9-12.5-18.2-22.8-30.9-30.9s-27.1-14.5-43.1-19.1c-16.1-4.6-32.2-9.1-48.4-13.4
		c-19.9-5.2-39.8-10.4-59.8-15.5c-17.1-4.3-32.9-9.5-47.6-15.5c-14.1-6-25.4-14.5-33.8-25.6c-8.4-11.1-12.6-27-12.6-47.6
		c0-3.8,1.1-10.6,3.3-20.3c2.2-9.8,7.3-19.7,15.5-29.7c8.1-10,20.6-19,37.4-26.8c16.8-7.9,39.9-11.8,69.2-11.8
		c20.1,0,38.4,2.2,54.9,6.5s30.8,11.3,42.7,20.7s21.2,21.6,27.7,36.2C2569.1,275.5,2572.3,293.4,2572.3,314.6L2572.3,314.6z"/>
	<path class="st2" d="M116.3,592.8V314.6h347.4v-16.3H116.3V44.5h369.3V28.2H100v580.9h388.9v-16.3H116.3L116.3,592.8z M802.1,190.9
		l-144,189.6L517.3,190.9h-21.2l152.1,201.8L481.5,609.1H501l157-204.2l157.8,204.2h20.3L668.7,392.7l152.9-201.8L802.1,190.9
		L802.1,190.9z M885.1,752.3V492h1.6c9.8,38,29,68.5,57.8,91.5c28.7,23,65.4,34.6,109.8,34.6c28.7,0,54.2-5.8,76.5-17.5
		c22.2-11.7,40.8-27.5,55.7-47.6c14.9-20.1,26.3-43.4,34.2-70c7.9-26.6,11.8-54.5,11.8-83.8c0-31.5-4.1-60.5-12.2-87.1
		s-19.9-49.6-35.4-69.2c-15.5-19.5-34.2-34.7-56.1-45.6c-22-10.8-46.8-16.3-74.4-16.3c-21.2,0-40.8,3.1-59,9.4
		c-18.2,6.2-34.3,15-48.4,26.4c-14.2,11.5-26.5,25.1-36.6,40.3c-10.3,15.5-18.2,32.4-23.6,50.8h-1.6v-117h-16.3v561.3h16.2V752.3z
		 M1054.3,602.6c-51,0-91.9-17.5-122.8-52.5c-30.9-35-46.4-85.3-46.4-150.9c0-27.1,3.8-52.9,11.4-77.3c7.6-24.4,18.6-45.8,32.9-64.3
		c14.4-18.4,32.1-33.1,53.3-43.9c21.2-10.8,45-16.3,71.6-16.3c27.1,0,50.8,5.4,71.2,16.3c20.3,10.8,37.2,25.6,50.4,44.3
		c13.3,18.7,23.3,40.1,30.1,64.3c6.8,24.1,10.2,49.8,10.2,76.9c0,24.4-3.1,48.7-9.4,72.8c-6.2,24.1-15.9,45.8-28.9,65.1
		c-13,19.2-29.7,35-50,47.2C1107.6,596.5,1083,602.6,1054.3,602.6L1054.3,602.6z M1321.9,609.1V372.4c0-22.8,3.3-45,9.8-66.7
		s16.5-40.8,30.1-57.4c13.6-16.5,30.8-29.6,51.7-39.1c20.9-9.5,45.7-13.4,74.4-11.8v-16.3c-25-0.5-46.8,2.2-65.5,8.1
		c-18.7,6-34.8,14.1-48.4,24.4c-13.6,10.3-24.4,22.4-32.5,36.2s-14.2,28.8-17.9,44.3h-1.6V190.9h-16.3v418.2H1321.9L1321.9,609.1z
		 M1508.2,403.3H1858c1.1-28.7-1.8-56.4-8.5-83c-6.8-26.6-17.6-50.2-32.5-70.8s-34.2-37.2-57.8-49.6s-51.7-18.7-84.2-18.7
		c-23.3,0-46.1,4.9-68.3,14.6c-22.2,9.8-41.8,24-58.6,42.7c-16.8,18.7-30.4,41.6-40.7,68.8c-10.3,27.1-15.5,58-15.5,92.7
		c0,30.9,3.5,59.8,10.6,86.6s17.9,50.2,32.5,70c14.6,19.8,33.5,35.1,56.5,46c23,10.8,50.8,16,83.4,15.5c47.7,0,87.9-13.4,120.4-40.3
		c32.5-26.9,51.8-64.7,57.8-113.5h-16.3c-7.1,46.1-25.1,80.7-54.1,103.7c-29,23.1-65.5,34.6-109.4,34.6c-29.8,0-55-5.2-75.7-15.5
		c-20.6-10.3-37.4-24.4-50.4-42.3s-22.6-38.9-28.9-63.1C1512.2,457.6,1508.8,431.5,1508.2,403.3L1508.2,403.3z M1841.8,387h-333.5
		c1.6-29.3,7-55.6,16.3-78.9c9.2-23.3,21.3-43.3,36.2-59.8c14.9-16.5,32.3-29.2,52.1-37.8c19.8-8.7,41.1-13,63.9-13
		c27.1,0,51,5,71.6,15.1c20.6,10,37.8,23.7,51.7,41.1c13.8,17.4,24.3,37.6,31.3,60.6C1838.3,337.2,1841.8,361.5,1841.8,387
		L1841.8,387z M2195.7,314.6h16.3c0-46.6-13.6-80.5-40.7-101.7s-64-31.7-110.6-31.7c-26,0-48,3.3-65.9,9.8s-32.5,14.9-43.9,25.2
		s-19.5,21.7-24.4,34.2c-4.9,12.5-7.3,24.4-7.3,35.8c0,22.8,4.1,40.9,12.2,54.5s20.9,24.1,38.2,31.7c11.9,5.4,25.5,10.3,40.7,14.6
		c15.2,4.3,32.8,8.9,52.9,13.8c17.9,4.3,35.5,8.7,52.9,13s32.7,10.2,46,17.5s24.1,16.7,32.5,28.1s12.6,26.3,12.6,44.7
		c0,17.9-4.2,33.1-12.6,45.6c-8.3,12.4-19.3,22.8-32.1,30.5c-13,7.9-27.5,13.6-43.5,17.1s-31.6,5.3-46.8,5.3
		c-49.4,0-87.2-11-113.5-32.9c-26.3-22-39.5-56.5-39.5-103.7h-16.3c0,52.6,14.2,91.1,42.7,115.5s70.6,36.6,126.5,36.6
		c17.9,0,35.9-2,54.1-6.1c18.2-4.1,34.4-10.7,48.8-19.9c14.2-9.1,26.2-21.3,35-35.8c9-14.6,13.4-32.5,13.4-53.7
		c0-20.1-3.9-36.3-11.8-48.8c-7.9-12.5-18.2-22.8-30.9-30.9s-27.1-14.5-43.1-19.1c-16.1-4.6-32.2-9.1-48.4-13.4
		c-19.9-5.2-39.8-10.4-59.8-15.5c-17.1-4.3-32.9-9.5-47.6-15.5c-14.1-6-25.4-14.5-33.8-25.6s-12.6-27-12.6-47.6
		c0-3.8,1.1-10.6,3.3-20.3c2.2-9.8,7.3-19.7,15.5-29.7c8.1-10,20.6-19,37.4-26.8c16.8-7.9,39.9-11.8,69.2-11.8
		c20.1,0,38.4,2.2,54.9,6.5s30.8,11.3,42.7,20.7c11.9,9.5,21.2,21.6,27.7,36.2C2192.4,275.5,2195.7,293.4,2195.7,314.6L2195.7,314.6
		z M2572.3,314.6h16.3c0-46.6-13.6-80.5-40.7-101.7s-64-31.7-110.6-31.7c-26,0-48,3.3-65.9,9.8s-32.5,14.9-43.9,25.2
		s-19.5,21.7-24.4,34.2c-4.9,12.5-7.3,24.4-7.3,35.8c0,22.8,4.1,40.9,12.2,54.5c8.1,13.6,20.9,24.1,38.2,31.7
		c11.9,5.4,25.5,10.3,40.7,14.6c15.2,4.3,32.8,8.9,52.9,13.8c17.9,4.3,35.5,8.7,52.9,13s32.7,10.2,46,17.5s24.1,16.7,32.5,28.1
		s12.6,26.3,12.6,44.7c0,17.9-4.2,33.1-12.6,45.6c-8.3,12.4-19.3,22.8-32.1,30.5c-13,7.9-27.5,13.6-43.5,17.1s-31.6,5.3-46.8,5.3
		c-49.4,0-87.2-11-113.5-32.9c-26.3-22-39.5-56.5-39.5-103.7h-16.3c0,52.6,14.2,91.1,42.7,115.5s70.6,36.6,126.5,36.6
		c17.9,0,35.9-2,54.1-6.1c18.2-4.1,34.4-10.7,48.8-19.9c14.2-9.1,26.2-21.3,35-35.8c9-14.6,13.4-32.5,13.4-53.7
		c0-20.1-3.9-36.3-11.8-48.8c-7.9-12.5-18.2-22.8-30.9-30.9s-27.1-14.5-43.1-19.1c-16.1-4.6-32.2-9.1-48.4-13.4
		c-19.9-5.2-39.8-10.4-59.8-15.5c-17.1-4.3-32.9-9.5-47.6-15.5c-14.1-6-25.4-14.5-33.8-25.6c-8.4-11.1-12.6-27-12.6-47.6
		c0-3.8,1.1-10.6,3.3-20.3c2.2-9.8,7.3-19.7,15.5-29.7c8.1-10,20.6-19,37.4-26.8c16.8-7.9,39.9-11.8,69.2-11.8
		c20.1,0,38.4,2.2,54.9,6.5s30.8,11.3,42.7,20.7s21.2,21.6,27.7,36.2C2569.1,275.5,2572.3,293.4,2572.3,314.6L2572.3,314.6z"/>
</g>
</svg>
